<?xml version="1.0" encoding="utf-8"?>
<!-- Generator: Adobe Illustrator 16.0.0, SVG Export Plug-In . SVG Version: 6.00 Build 0)  -->
<!DOCTYPE svg PUBLIC "-//W3C//DTD SVG 1.1//EN" "http://www.w3.org/Graphics/SVG/1.1/DTD/svg11.dtd">
<svg version="1.1" id="Ebene_1" xmlns="http://www.w3.org/2000/svg" xmlns:xlink="http://www.w3.org/1999/xlink" x="0px" y="0px"
	 width="566.929px" height="283.465px" viewBox="0 0 566.929 283.465" enable-background="new 0 0 566.929 283.465"
	 xml:space="preserve">
<path stroke="#000000" stroke-width="0.6813" stroke-linejoin="round" d="M30.986,167.75c12.513-8.568,51.436-17.072,106.636-22.423
	c-76.046,6.669-134.012,17.51-129.15,28.666h19.117C27.589,173.993,24.569,172.035,30.986,167.75z"/>
<path stroke="#000000" stroke-width="0.3699" stroke-linejoin="round" d="M137.181,146.849c-53.465,5.631-88.348,14.31-88.348,23.53
	c0,16.976,114.398,30.736,255.516,30.736c141.114,0,255.517-13.761,255.517-30.736c0-13.826-75.936-25.522-180.38-29.382
	c92.22,4.156,158.435,15.561,158.067,28.876c-0.459,16.677-105.142,30.03-233.803,29.831
	c-128.664-0.199-232.596-13.88-232.135-30.554c0.222-8.04,25.17-15.355,64.864-20.708L137.181,146.849z"/>
<path stroke="#000000" stroke-width="1.3625" stroke-linejoin="round" d="M203.139,108.792c-14.709,3.605-29.519,6.985-44.508,9.211
	c-1.731,0.257-5.245,0.722-5.252,0.74c-5.721,0.743-11.553,1.218-17.251,0.652c-4.441-0.44-9.867-2.529-6.59-7.628
	c0,0,1.534-2.287,2.135-2.515c-3.014,1.146-4.295,2.478-4.295,2.478c-1.774,1.426-3.869,4.199-3.088,6.626
	c0.793,2.466,4.334,3.074,6.487,3.39c6.329,0.927,12.987,0.16,19.33-0.679c-1.881,7.601-4.209,15.118-6.821,22.494
	c-2.133,6.021-4.536,11.98-7.558,17.615c-1.245,2.319-2.642,4.563-4.259,6.641c-0.723,0.93-1.523,1.792-2.383,2.596
	c-0.161,0.149-0.329,0.291-0.498,0.431c-0.102,0.042-2.361,1.611-3.488,1.938c10.784-3.14,15.69-16.389,19.358-25.719
	c3.37-8.57,6.174-17.442,8.442-26.382c15.48-2.14,30.783-5.694,45.945-9.411c1.069-0.255,2.606-0.925,2.803-1.083
	C202.428,109.563,203.139,108.792,203.139,108.792z"/>
<path stroke="#000000" stroke-width="1.3625" d="M214.995,113.396c-17.627,8.274-32.479,21.187-43.936,36.859
	c-4.293,5.873-8.395,12.257-11.496,18.959c-1.05-11.733,0.984-24.137,4.415-35.235c0.173-0.558-2.414-0.853-2.673-0.015
	c-3.912,12.656-6.01,27.009-3.788,40.131c0.122,0.718,2.383,0.794,2.625,0.156c2.98-7.867,7.579-15.296,12.383-22.148
	c11.315-16.137,26.469-29.545,44.356-37.941C218.157,113.562,215.615,113.105,214.995,113.396z"/>
<path stroke="#000000" stroke-width="0.7494" d="M194.524,115.363c-12.14,2.931-24.387,5.48-36.669,7.744
	c-1.185,0.223-1.09,0.223-1.24,0.716c-1.931,7.984-4.479,15.865-7.419,23.529c-2.319,6.045-4.993,12.013-8.464,17.49
	c-2.644,4.172-7.081,9.306-11.917,9.958c0,0-0.991,0.201-0.292,0.32c10.42-1.403,16.218-15.035,19.801-23.299
	c3.928-9.062,7.055-18.611,9.404-28.211c11.909-2.212,23.782-4.69,35.556-7.532C193.732,115.972,194.143,115.777,194.524,115.363z"
	/>
<path stroke="#000000" stroke-width="0.9247" stroke-linejoin="round" d="M145.944,124.079c-6.634,0.854-13.516,1.68-20.196,0.829
	c-2.278-0.29-5.659-0.922-6.607-3.377c-0.914-2.367,1.443-5.186,3.078-6.655c-0.191-0.001-0.891,0.402-1.24,0.716l0,0
	c-1.69,1.52-3.748,4.067-3.131,6.488c0.629,2.472,4.119,3.133,6.195,3.476c6.743,1.114,13.959,0.102,20.661-0.761
	C144.704,124.795,146.89,124.54,145.944,124.079z"/>
<path stroke="#000000" stroke-width="0.7494" d="M162.649,178.519c3.224-7.544,7.557-14.716,12.137-21.496
	c9.629-14.254,21.969-27.343,37.472-35.178c0.564-0.285-0.568-0.481-0.842-0.343c-15.064,7.614-27.021,20.035-36.629,33.716
	c-5.078,7.232-9.806,15.02-13.289,23.167C161.351,178.729,162.519,178.821,162.649,178.519L162.649,178.519z"/>
<g>
	<path stroke="#000000" stroke-width="0.9547" d="M186.042,157.537c0.415,0.031,0.91,0.047,1.486,0.047
		c0.594,0,1.131-0.016,1.601-0.047c0.472-0.032,0.892-0.065,1.259-0.11c0.069,1.59,0.168,3.234,0.293,4.946
		c0.129,1.709,0.26,3.348,0.399,4.907c0.137,1.562,0.275,2.968,0.413,4.218c0.138,1.253,0.264,2.201,0.382,2.844
		c0.48-0.919,0.993-1.91,1.534-2.979c0.542-1.069,1.087-2.153,1.637-3.255c0.555-1.104,1.086-2.193,1.606-3.272
		c0.517-1.081,1-2.091,1.45-3.032c0.448-0.94,0.842-1.79,1.189-2.549c0.346-0.754,0.61-1.365,0.793-1.828
		c0.572,0.105,1.162,0.157,1.758,0.157c0.369,0,0.683-0.016,0.947-0.047c0.266-0.032,0.523-0.065,0.778-0.11
		c0.069,1.265,0.177,2.648,0.326,4.154c0.151,1.504,0.317,3.015,0.501,4.528c0.184,1.518,0.375,2.99,0.57,4.425
		c0.195,1.435,0.383,2.717,0.57,3.84c0.711-1.376,1.454-2.897,2.224-4.562c0.769-1.666,1.501-3.295,2.188-4.891
		c0.692-1.597,1.317-3.061,1.881-4.393c0.563-1.332,0.996-2.366,1.295-3.103c0.505,0.105,1.058,0.157,1.654,0.157
		c0.277,0,0.545-0.016,0.812-0.047c0.264-0.032,0.523-0.065,0.776-0.11c-0.162,0.278-0.321,0.559-0.483,0.847
		c-0.16,0.287-0.351,0.639-0.568,1.051c-0.22,0.414-0.479,0.917-0.776,1.515c-0.299,0.599-0.667,1.344-1.104,2.239
		c-0.92,1.858-1.829,3.697-2.725,5.512c-0.898,1.813-1.805,3.652-2.726,5.509c-0.576,1.175-1.132,2.327-1.674,3.463
		c-0.539,1.138-1.084,2.267-1.636,3.394c-0.299-0.036-0.57-0.053-0.812-0.053s-0.521,0-0.845,0c-0.781,0-1.368,0.017-1.758,0.053
		c-0.117-1.471-0.267-3.029-0.45-4.687c-0.182-1.652-0.377-3.219-0.585-4.702c-0.208-1.479-0.404-2.798-0.585-3.957
		c-0.186-1.16-0.324-2.016-0.415-2.565c-0.415,0.711-0.956,1.709-1.622,2.992c-0.667,1.289-1.379,2.685-2.14,4.188
		c-0.758,1.504-1.517,3.034-2.277,4.599c-0.759,1.56-1.426,2.938-2,4.132c-0.39-0.036-0.92-0.053-1.585-0.053
		c-0.805,0-1.439,0.017-1.898,0.053c-0.022-0.389-0.086-1.093-0.188-2.103c-0.104-1.01-0.231-2.191-0.382-3.547
		c-0.148-1.354-0.319-2.825-0.515-4.406c-0.197-1.585-0.399-3.177-0.605-4.774c-0.206-1.594-0.415-3.145-0.621-4.647
		c-0.207-1.506-0.402-2.852-0.588-4.051C185.213,157.472,185.63,157.505,186.042,157.537z"/>
	<path stroke="#000000" stroke-width="0.9547" d="M221.678,157.537c0.505,0.031,1.011,0.047,1.519,0.047
		c0.575,0,1.08-0.016,1.519-0.047c0.435-0.032,0.85-0.065,1.24-0.11c-0.621,2.023-1.217,4.148-1.793,6.375
		c-0.575,2.229-1.098,4.396-1.57,6.51c-0.471,2.114-0.878,4.097-1.225,5.957c-0.344,1.859-0.598,3.424-0.758,4.687
		c-0.599-0.036-1.127-0.053-1.588-0.053c-0.459,0-0.918,0-1.379,0c-0.437,0-0.909,0-1.415,0c-0.505,0-0.942,0.017-1.308,0.053
		c0.275-0.85,0.539-1.729,0.791-2.636c0.255-0.907,0.531-1.944,0.828-3.117c0.298-1.169,0.621-2.522,0.966-4.065
		c0.344-1.535,0.748-3.374,1.208-5.511c0.275-1.262,0.504-2.335,0.69-3.22c0.182-0.884,0.333-1.641,0.448-2.273
		c0.116-0.63,0.202-1.159,0.258-1.585c0.057-0.423,0.111-0.797,0.155-1.121C220.702,157.472,221.173,157.505,221.678,157.537z"/>
	<path stroke="#000000" stroke-width="0.9547" d="M233.229,157.537c0.506,0.031,1.022,0.047,1.553,0.047
		c0.505,0,0.996-0.016,1.466-0.047c0.47-0.032,0.902-0.065,1.295-0.11c-0.347,1.174-0.693,2.445-1.036,3.825
		c-0.346,1.375-0.686,2.768-1.018,4.181c-0.333,1.409-0.644,2.804-0.932,4.179c-0.289,1.377-0.552,2.647-0.794,3.82
		c-0.242,1.169-0.443,2.207-0.603,3.111c-0.159,0.907-0.275,1.602-0.345,2.084h2.621c1.173,0,2.179-0.013,3.02-0.037
		c0.838-0.02,1.672-0.066,2.501-0.135c-0.23,0.485-0.385,0.907-0.465,1.27c-0.082,0.356-0.119,0.767-0.119,1.23
		c-1.176-0.036-2.347-0.053-3.522-0.053c-1.17,0-2.346,0-3.517,0c-1.267,0-2.466,0-3.606,0c-1.139,0-2.11,0.017-2.913,0.053
		c0.55-1.818,1.08-3.829,1.585-6.043c0.506-2.219,0.989-4.407,1.448-6.562c0.391-1.814,0.743-3.625,1.053-5.427
		c0.311-1.802,0.615-3.634,0.916-5.497C232.251,157.472,232.724,157.505,233.229,157.537z"/>
	<path stroke="#000000" stroke-width="0.9547" d="M252.362,157.568c1.319,0.009,2.604,0.016,3.848,0.016
		c1.195,0,2.314-0.016,3.361-0.047c1.047-0.032,1.961-0.065,2.741-0.11c-0.298,0.602-0.479,1.076-0.55,1.418
		c-0.071,0.347-0.08,0.761-0.035,1.242c-0.46-0.043-0.896-0.086-1.312-0.119c-0.415-0.034-0.907-0.07-1.483-0.104
		c-0.572-0.036-1.259-0.059-2.051-0.069c-0.792-0.012-1.803-0.018-3.018-0.018c-0.391,1.373-0.743,2.748-1.054,4.123
		c-0.311,1.37-0.556,2.514-0.74,3.43h2.794c0.597,0,1.126,0,1.585,0c0.485,0,0.92-0.008,1.311-0.03
		c0.393-0.02,0.77-0.039,1.138-0.062c0.37-0.018,0.738-0.04,1.104-0.06c-0.321,0.694-0.498,1.228-0.531,1.601
		c-0.035,0.369-0.042,0.74-0.019,1.109c-1.194-0.14-2.497-0.227-3.897-0.259c-1.404-0.037-2.726-0.052-3.967-0.052
		c-0.322,1.511-0.627,3.024-0.914,4.548c-0.288,1.523-0.523,3.052-0.707,4.587h2.758c0.577,0,1.082-0.011,1.519-0.021
		c0.437-0.012,0.852-0.022,1.242-0.036c0.39-0.011,0.783-0.035,1.17-0.072c0.393-0.037,0.832-0.08,1.311-0.127
		c-0.297,0.694-0.475,1.216-0.532,1.564c-0.057,0.345-0.064,0.657-0.018,0.936c-1.379-0.036-2.663-0.053-3.847-0.053
		s-2.293,0-3.329,0c-1.241,0-2.386,0-3.432,0c-1.047,0-2.027,0.017-2.949,0.053c0.229-0.666,0.501-1.613,0.811-2.842
		s0.639-2.595,0.984-4.098c0.344-1.505,0.683-3.08,1.016-4.719c0.333-1.642,0.643-3.217,0.931-4.72
		c0.288-1.505,0.542-2.889,0.759-4.151c0.219-1.261,0.372-2.263,0.465-2.999C249.861,157.513,251.039,157.557,252.362,157.568z"/>
	<path stroke="#000000" stroke-width="0.9547" d="M271.679,159.887c0.634,1.058,1.312,2.158,2.037,3.298
		c0.722,1.14,1.454,2.279,2.188,3.417c0.734,1.142,1.443,2.219,2.125,3.228c0.675,1.016,1.296,1.917,1.859,2.713
		c0.562,0.794,1.02,1.42,1.363,1.881c0.184-0.624,0.386-1.399,0.602-2.333c0.222-0.932,0.445-1.931,0.673-3.002
		c0.232-1.071,0.47-2.18,0.708-3.331c0.243-1.15,0.462-2.248,0.655-3.298c0.196-1.046,0.374-2.013,0.536-2.899
		c0.161-0.885,0.288-1.607,0.379-2.158c0.415,0.113,0.863,0.172,1.347,0.172c0.436,0,0.907-0.059,1.411-0.172
		c-0.135,0.528-0.263,1.018-0.378,1.467c-0.116,0.45-0.271,1.059-0.467,1.831c-0.194,0.771-0.442,1.808-0.739,3.104
		c-0.301,1.305-0.698,3.06-1.209,5.27c-0.275,1.241-0.627,2.935-1.052,5.074c-0.426,2.142-0.867,4.546-1.325,7.217
		c-0.462-0.136-0.943-0.204-1.453-0.204c-0.271,0-0.518,0.019-0.741,0.062c-0.217,0.038-0.429,0.089-0.639,0.143
		c-1.725-2.97-3.553-5.898-5.483-8.787c-1.931-2.89-3.896-5.795-5.896-8.719c-0.347,1.43-0.704,2.986-1.074,4.678
		c-0.366,1.693-0.705,3.346-1.016,4.957c-0.31,1.609-0.588,3.089-0.827,4.435c-0.241,1.346-0.408,2.368-0.501,3.057
		c-0.228-0.048-0.473-0.072-0.726-0.072c-0.252,0-0.505,0-0.756,0c-0.579,0-1.046,0.024-1.416,0.072
		c0.137-0.392,0.334-1.083,0.587-2.072c0.25-0.99,0.534-2.149,0.845-3.487c0.311-1.333,0.639-2.789,0.984-4.363
		c0.342-1.582,0.684-3.179,1.016-4.803c0.335-1.623,0.648-3.228,0.949-4.815c0.297-1.588,0.55-3.062,0.759-4.422
		c0.461,0.138,0.966,0.207,1.519,0.207s1.059-0.069,1.52-0.207C270.499,157.872,271.048,158.827,271.679,159.887z"/>
	<polygon stroke="#000000" stroke-width="0.9547" points="309.505,173.351 288.755,173.351 289.446,169.881 310.334,169.881 	"/>
	<path stroke="#000000" stroke-width="0.9547" d="M322.239,159.887c0.632,1.058,1.312,2.158,2.034,3.298
		c0.725,1.14,1.457,2.279,2.191,3.417c0.734,1.142,1.444,2.219,2.121,3.228c0.681,1.016,1.301,1.917,1.864,2.713
		c0.565,0.794,1.019,1.42,1.364,1.881c0.185-0.624,0.386-1.399,0.604-2.333c0.217-0.932,0.44-1.931,0.672-3.002
		c0.229-1.071,0.465-2.18,0.708-3.331c0.24-1.15,0.459-2.248,0.655-3.298c0.195-1.046,0.37-2.013,0.532-2.899
		c0.163-0.885,0.286-1.607,0.382-2.158c0.416,0.113,0.862,0.172,1.346,0.172c0.438,0,0.905-0.059,1.412-0.172
		c-0.138,0.528-0.263,1.018-0.379,1.467c-0.114,0.45-0.271,1.059-0.463,1.831c-0.196,0.771-0.447,1.808-0.745,3.104
		c-0.297,1.305-0.699,3.06-1.204,5.27c-0.277,1.241-0.628,2.935-1.053,5.074c-0.427,2.142-0.87,4.546-1.329,7.217
		c-0.459-0.136-0.945-0.204-1.451-0.204c-0.273,0-0.521,0.019-0.74,0.062c-0.219,0.038-0.43,0.089-0.638,0.143
		c-1.726-2.97-3.553-5.898-5.484-8.787c-1.932-2.89-3.898-5.795-5.899-8.719c-0.345,1.43-0.7,2.986-1.07,4.678
		c-0.367,1.693-0.708,3.346-1.016,4.957c-0.31,1.609-0.588,3.089-0.83,4.435c-0.241,1.346-0.408,2.368-0.498,3.057
		c-0.229-0.048-0.475-0.072-0.726-0.072c-0.253,0-0.509,0-0.759,0c-0.575,0-1.046,0.024-1.415,0.072
		c0.136-0.392,0.334-1.083,0.589-2.072c0.251-0.99,0.531-2.149,0.843-3.487c0.31-1.333,0.639-2.789,0.983-4.363
		c0.344-1.582,0.685-3.179,1.016-4.803c0.335-1.623,0.649-3.228,0.949-4.815s0.553-3.062,0.759-4.422
		c0.461,0.138,0.968,0.207,1.519,0.207c0.555,0,1.059-0.069,1.52-0.207C321.062,157.872,321.607,158.827,322.239,159.887z"/>
	<path stroke="#000000" stroke-width="0.9547" d="M347.669,157.568c1.32,0.009,2.602,0.016,3.846,0.016
		c1.198,0,2.317-0.016,3.364-0.047c1.045-0.032,1.961-0.065,2.742-0.11c-0.302,0.602-0.483,1.076-0.554,1.418
		c-0.068,0.347-0.08,0.761-0.035,1.242c-0.459-0.043-0.894-0.086-1.309-0.119c-0.415-0.034-0.909-0.07-1.486-0.104
		c-0.574-0.036-1.259-0.059-2.048-0.069c-0.797-0.012-1.803-0.018-3.019-0.018c-0.395,1.373-0.747,2.748-1.056,4.123
		c-0.312,1.37-0.559,2.514-0.74,3.43h2.793c0.598,0,1.127,0,1.592,0c0.479,0,0.918-0.008,1.308-0.03
		c0.39-0.02,0.77-0.039,1.137-0.062c0.369-0.018,0.736-0.04,1.104-0.06c-0.322,0.694-0.501,1.228-0.533,1.601
		c-0.038,0.369-0.038,0.74-0.017,1.109c-1.196-0.14-2.496-0.227-3.901-0.259c-1.399-0.037-2.724-0.052-3.969-0.052
		c-0.32,1.511-0.625,3.024-0.912,4.548s-0.525,3.052-0.707,4.587h2.762c0.574,0,1.08-0.011,1.515-0.021
		c0.439-0.012,0.854-0.022,1.243-0.036c0.391-0.011,0.782-0.035,1.171-0.072c0.394-0.037,0.831-0.08,1.313-0.127
		c-0.301,0.694-0.477,1.216-0.531,1.564c-0.062,0.345-0.064,0.657-0.021,0.936c-1.38-0.036-2.661-0.053-3.847-0.053
		s-2.292,0-3.328,0c-1.241,0-2.386,0-3.432,0c-1.047,0-2.031,0.017-2.95,0.053c0.229-0.666,0.498-1.613,0.81-2.842
		c0.312-1.229,0.64-2.595,0.982-4.098c0.348-1.505,0.686-3.08,1.018-4.719c0.335-1.642,0.646-3.217,0.932-4.72
		c0.289-1.505,0.541-2.889,0.761-4.151c0.217-1.261,0.373-2.263,0.465-2.999C345.166,157.513,346.346,157.557,347.669,157.568z"/>
	<path stroke="#000000" stroke-width="0.9547" d="M363.461,157.537c0.503,0.031,0.998,0.047,1.48,0.047
		c0.531,0,1.046-0.016,1.553-0.047c0.503-0.032,0.954-0.065,1.344-0.11c-0.229,0.853-0.458,1.692-0.688,2.518
		c-0.229,0.829-0.472,1.663-0.725,2.515c-0.16,0.595-0.349,1.343-0.569,2.241c-0.22,0.894-0.437,1.814-0.655,2.754
		c-0.218,0.943-0.42,1.83-0.602,2.669c-0.188,0.839-0.321,1.5-0.414,1.98c-0.138,0.715-0.238,1.305-0.296,1.776
		c-0.058,0.471-0.087,0.936-0.087,1.394c0,0.759,0.134,1.393,0.399,1.896c0.264,0.505,0.625,0.914,1.084,1.225
		c0.464,0.307,0.997,0.532,1.606,0.669c0.61,0.14,1.258,0.208,1.949,0.208c1.517,0,2.75-0.24,3.708-0.723
		c0.953-0.483,1.723-1.104,2.31-1.859c0.589-0.76,1.043-1.602,1.365-2.533c0.32-0.932,0.607-1.845,0.862-2.738
		c0.206-0.69,0.452-1.646,0.74-2.877s0.574-2.525,0.862-3.895c0.286-1.365,0.557-2.702,0.812-4.014
		c0.252-1.308,0.444-2.377,0.587-3.205c0.278,0.045,0.544,0.078,0.81,0.11c0.265,0.031,0.522,0.047,0.778,0.047
		c0.456,0,0.975-0.052,1.55-0.157c-0.208,0.692-0.436,1.494-0.672,2.399c-0.242,0.909-0.485,1.854-0.725,2.848
		c-0.245,0.985-0.481,1.985-0.709,2.997c-0.229,1.014-0.438,1.956-0.619,2.83c-0.418,1.885-0.877,3.618-1.38,5.206
		c-0.507,1.586-1.202,2.949-2.088,4.087c-0.885,1.138-2.04,2.017-3.467,2.638c-1.426,0.619-3.265,0.932-5.521,0.932
		c-1.031,0-2.098-0.088-3.188-0.261c-1.093-0.171-2.08-0.511-2.96-1.015c-0.882-0.506-1.609-1.179-2.184-2.019
		c-0.572-0.839-0.859-1.893-0.859-3.155c0-0.874,0.104-1.814,0.307-2.826c0.209-1.013,0.483-2.241,0.827-3.69
		c0.457-1.817,0.87-3.634,1.235-5.448c0.367-1.817,0.666-3.656,0.895-5.522C362.51,157.472,362.956,157.505,363.461,157.537z"/>
	<path stroke="#000000" stroke-width="0.9547" d="M393.823,159.887c0.635,1.058,1.312,2.158,2.036,3.298
		c0.722,1.14,1.452,2.279,2.189,3.417c0.736,1.142,1.443,2.219,2.123,3.228c0.679,1.016,1.298,1.917,1.866,2.713
		c0.559,0.794,1.016,1.42,1.358,1.881c0.182-0.624,0.384-1.399,0.604-2.333c0.219-0.932,0.442-1.931,0.671-3.002
		c0.23-1.071,0.467-2.18,0.707-3.331c0.245-1.15,0.463-2.248,0.658-3.298c0.195-1.046,0.375-2.013,0.535-2.899
		c0.158-0.885,0.287-1.607,0.378-2.158c0.414,0.113,0.863,0.172,1.347,0.172c0.436,0,0.907-0.059,1.413-0.172
		c-0.136,0.528-0.265,1.018-0.378,1.467c-0.113,0.45-0.273,1.059-0.466,1.831c-0.197,0.771-0.443,1.808-0.743,3.104
		c-0.3,1.305-0.7,3.06-1.206,5.27c-0.278,1.241-0.627,2.935-1.055,5.074c-0.422,2.142-0.866,4.546-1.325,7.217
		c-0.463-0.136-0.947-0.204-1.452-0.204c-0.276,0-0.522,0.019-0.74,0.062c-0.219,0.038-0.43,0.089-0.636,0.143
		c-1.729-2.97-3.556-5.898-5.488-8.787c-1.931-2.89-3.897-5.795-5.897-8.719c-0.344,1.43-0.7,2.986-1.071,4.678
		c-0.366,1.693-0.706,3.346-1.015,4.957c-0.312,1.609-0.589,3.089-0.825,4.435c-0.246,1.346-0.411,2.368-0.504,3.057
		c-0.229-0.048-0.473-0.072-0.723-0.072c-0.256,0-0.508,0-0.759,0c-0.579,0-1.047,0.024-1.417,0.072
		c0.141-0.392,0.334-1.083,0.587-2.072c0.251-0.99,0.535-2.149,0.846-3.487c0.311-1.333,0.639-2.789,0.982-4.363
		c0.345-1.582,0.685-3.179,1.017-4.803c0.336-1.623,0.651-3.228,0.95-4.815c0.301-1.588,0.553-3.062,0.759-4.422
		c0.458,0.138,0.967,0.207,1.519,0.207c0.551,0,1.057-0.069,1.517-0.207C392.644,157.872,393.189,158.827,393.823,159.887z"/>
	<path stroke="#000000" stroke-width="0.9547" d="M419.786,157.553c1.14,0.021,2.201,0.031,3.191,0.031
		c0.963,0,1.989-0.016,3.072-0.047c1.079-0.032,2.206-0.065,3.376-0.11c-0.273,0.643-0.447,1.145-0.516,1.511
		c-0.072,0.364-0.104,0.801-0.104,1.304c-0.965-0.112-2.134-0.212-3.502-0.292c-1.368-0.079-2.81-0.122-4.329-0.122
		c-0.137,0.483-0.295,1.057-0.463,1.724c-0.173,0.663-0.348,1.346-0.522,2.044c-0.167,0.7-0.332,1.379-0.479,2.031
		c-0.151,0.654-0.272,1.223-0.362,1.703c0.388,0.045,0.842,0.073,1.347,0.087c0.503,0.009,1.221,0.016,2.136,0.016
		c0.875,0,1.628-0.014,2.261-0.036c0.636-0.025,1.305-0.066,2.017-0.116c-0.251,0.658-0.412,1.175-0.479,1.551
		c-0.073,0.378-0.117,0.798-0.142,1.26c-1.126-0.162-2.379-0.271-3.757-0.326c-1.379-0.057-2.67-0.089-3.866-0.089
		c-0.322,1.331-0.591,2.5-0.811,3.509c-0.217,1.01-0.415,1.942-0.585,2.803c-0.173,0.862-0.328,1.688-0.468,2.492
		c-0.136,0.801-0.276,1.627-0.411,2.477c-0.462-0.036-0.939-0.053-1.433-0.053s-0.984,0-1.465,0c-0.459,0-0.945,0-1.451,0
		c-0.505,0-0.956,0.017-1.346,0.053c0.3-0.825,0.619-1.872,0.97-3.137c0.341-1.261,0.686-2.621,1.033-4.08
		c0.344-1.457,0.686-2.962,1.019-4.513c0.332-1.55,0.649-3.054,0.946-4.511c0.299-1.459,0.563-2.817,0.793-4.083
		c0.229-1.263,0.417-2.33,0.553-3.205C417.388,157.491,418.646,157.532,419.786,157.553z"/>
	<path stroke="#000000" stroke-width="0.9547" d="M429.814,165.526c0.703-1.703,1.691-3.187,2.97-4.449
		c1.279-1.265,2.802-2.268,4.576-3.001c1.775-0.735,3.729-1.104,5.87-1.104c1.612,0,3.136,0.217,4.576,0.653
		c1.438,0.437,2.704,1.093,3.8,1.967c1.094,0.873,1.958,1.966,2.591,3.279c0.633,1.309,0.945,2.839,0.945,4.587
		c0,1.815-0.337,3.562-1.02,5.245c-0.679,1.677-1.647,3.164-2.911,4.446c-1.271,1.289-2.812,2.316-4.63,3.075
		c-1.823,0.758-3.87,1.138-6.149,1.138c-1.611,0-3.12-0.215-4.536-0.637c-1.419-0.428-2.656-1.083-3.713-1.97
		c-1.062-0.883-1.899-1.982-2.507-3.294c-0.613-1.312-0.915-2.816-0.915-4.521C428.762,169.036,429.113,167.23,429.814,165.526
		 M434.312,175.424c0.266,0.852,0.66,1.578,1.19,2.188c0.531,0.609,1.191,1.08,1.985,1.411c0.793,0.336,1.707,0.502,2.74,0.502
		c1.061,0,2.035-0.217,2.933-0.652c0.896-0.438,1.71-1.019,2.435-1.742c0.723-0.725,1.359-1.556,1.911-2.501
		c0.552-0.941,1.014-1.923,1.385-2.947c0.365-1.022,0.639-2.044,0.824-3.068c0.184-1.023,0.273-1.983,0.273-2.88
		c0-1.009-0.143-1.932-0.43-2.758c-0.287-0.827-0.705-1.543-1.257-2.153c-0.551-0.61-1.227-1.082-2.018-1.412
		c-0.796-0.338-1.699-0.501-2.708-0.501c-1.129,0-2.15,0.209-3.068,0.62c-0.923,0.414-1.741,0.979-2.448,1.688
		c-0.715,0.713-1.333,1.53-1.852,2.451c-0.514,0.917-0.946,1.889-1.29,2.911c-0.347,1.021-0.598,2.051-0.759,3.087
		c-0.163,1.032-0.241,2.021-0.241,2.963C433.918,173.64,434.048,174.573,434.312,175.424z"/>
	<path stroke="#000000" stroke-width="0.9547" d="M463.496,173.296c-0.218,1.08-0.427,2.105-0.618,3.07
		c-0.199,0.967-0.372,1.852-0.521,2.653c-0.151,0.809-0.269,1.451-0.361,1.936c-0.391-0.036-0.826-0.053-1.294-0.053
		c-0.474,0-0.961,0-1.463,0c-0.532,0-1.009,0-1.434,0c-0.427,0-0.802,0.017-1.123,0.053c0.229-0.759,0.507-1.786,0.828-3.084
		c0.322-1.294,0.655-2.716,0.999-4.253c0.346-1.539,0.698-3.128,1.053-4.769c0.359-1.644,0.685-3.204,0.982-4.69
		c0.3-1.478,0.56-2.812,0.778-4.007c0.218-1.193,0.371-2.102,0.464-2.726c0.393,0.045,0.826,0.078,1.312,0.11
		c0.484,0.031,0.99,0.047,1.521,0.047c0.731,0,1.478-0.027,2.223-0.079c0.748-0.049,1.603-0.078,2.571-0.078
		c0.942,0,1.817,0.11,2.618,0.332c0.808,0.218,1.504,0.554,2.093,1.014c0.587,0.46,1.037,1.046,1.365,1.757
		c0.319,0.711,0.482,1.573,0.482,2.584c0,0.967-0.177,1.826-0.518,2.582c-0.351,0.759-0.809,1.407-1.382,1.948
		c-0.579,0.538-1.253,0.975-2.021,1.31c-0.771,0.331-1.583,0.557-2.433,0.669c0.134,0.367,0.328,0.868,0.573,1.5
		c0.239,0.631,0.507,1.312,0.807,2.049c0.297,0.736,0.614,1.504,0.946,2.309c0.335,0.803,0.656,1.558,0.97,2.271
		c0.306,0.713,0.59,1.356,0.845,1.927c0.251,0.577,0.448,1.002,0.588,1.277c-0.462-0.036-0.928-0.053-1.398-0.053
		c-0.474,0-0.939,0-1.398,0c-0.622,0-1.148,0-1.587,0c-0.438,0-0.837,0.017-1.207,0.053c-0.577-1.818-1.187-3.633-1.832-5.45
		c-0.641-1.818-1.332-3.634-2.066-5.452h-0.653C463.948,171.135,463.713,172.214,463.496,173.296 M465.247,168.58
		c0.239,0.013,0.465,0.019,0.672,0.019c0.826,0,1.55-0.149,2.173-0.449c0.621-0.3,1.132-0.709,1.532-1.226
		c0.407-0.514,0.702-1.119,0.902-1.812c0.193-0.689,0.294-1.427,0.294-2.207c0-0.735-0.114-1.34-0.332-1.812
		c-0.217-0.472-0.501-0.837-0.846-1.103c-0.344-0.265-0.722-0.443-1.134-0.536c-0.417-0.091-0.821-0.137-1.212-0.137h-0.411
		c-0.186,0-0.334,0.013-0.451,0.034c-0.112,0.415-0.246,0.947-0.395,1.604c-0.15,0.652-0.312,1.392-0.484,2.209
		c-0.174,0.814-0.352,1.683-0.533,2.605c-0.185,0.917-0.356,1.838-0.519,2.758C464.759,168.552,465.003,168.569,465.247,168.58z"/>
	<path stroke="#000000" stroke-width="0.9547" d="M487.729,159.887c0.628,1.058,1.309,2.158,2.033,3.298s1.455,2.279,2.189,3.417
		c0.739,1.142,1.443,2.219,2.122,3.228c0.678,1.016,1.302,1.917,1.863,2.713c0.563,0.794,1.019,1.42,1.366,1.881
		c0.183-0.624,0.382-1.399,0.603-2.333c0.215-0.932,0.443-1.931,0.672-3.002c0.229-1.071,0.465-2.18,0.705-3.331
		c0.242-1.15,0.46-2.248,0.656-3.298c0.194-1.046,0.374-2.013,0.535-2.899c0.16-0.885,0.285-1.607,0.379-2.158
		c0.413,0.113,0.862,0.172,1.344,0.172c0.437,0,0.909-0.059,1.417-0.172c-0.14,0.528-0.265,1.018-0.381,1.467
		c-0.113,0.45-0.27,1.059-0.462,1.831c-0.198,0.771-0.446,1.808-0.744,3.104c-0.3,1.305-0.702,3.06-1.21,5.27
		c-0.273,1.241-0.626,2.935-1.05,5.074c-0.426,2.142-0.867,4.546-1.332,7.217c-0.458-0.136-0.939-0.204-1.446-0.204
		c-0.274,0-0.522,0.019-0.739,0.062c-0.221,0.038-0.435,0.089-0.639,0.143c-1.725-2.97-3.555-5.898-5.486-8.787
		c-1.932-2.89-3.896-5.795-5.901-8.719c-0.342,1.43-0.7,2.986-1.066,4.678c-0.369,1.693-0.708,3.346-1.018,4.957
		c-0.314,1.609-0.587,3.089-0.83,4.435c-0.236,1.346-0.407,2.368-0.499,3.057c-0.229-0.048-0.469-0.072-0.724-0.072
		c-0.254,0-0.506,0-0.762,0c-0.573,0-1.047,0.024-1.412,0.072c0.137-0.392,0.333-1.083,0.586-2.072
		c0.253-0.99,0.535-2.149,0.846-3.487c0.312-1.333,0.641-2.789,0.983-4.363c0.346-1.582,0.685-3.179,1.018-4.803
		c0.335-1.623,0.649-3.228,0.946-4.815c0.302-1.588,0.558-3.062,0.764-4.422c0.462,0.138,0.963,0.207,1.514,0.207
		c0.554,0,1.061-0.069,1.518-0.207C486.548,157.872,487.096,158.827,487.729,159.887z"/>
</g>
<path d="M254.705,94.678c0.302,0.477,0.277,1.189-0.083,2.125c-0.057,0.147-0.137,0.285-0.23,0.417
	c0.916,1.281,1.158,2.652,0.489,3.452c-0.905,1.085-3.13,0.719-4.965-0.813c-0.129-0.108-0.251-0.219-0.37-0.332
	c-0.151,0.044-0.304,0.088-0.458,0.132c-2.654,0.766-5.662,1.633-6.754,3.325c-0.111,0.171-0.34,0.221-0.511,0.11
	c-0.172-0.111-0.221-0.34-0.11-0.512c1.242-1.924,4.392-2.833,7.171-3.634c0.033-0.009,0.065-0.019,0.098-0.028
	c-1.132-1.374-1.486-2.926-0.755-3.8c0.904-1.084,3.126-0.719,4.965,0.813c0.258,0.215,0.492,0.442,0.705,0.676
	c0.012-0.024,0.027-0.048,0.037-0.073c0.281-0.731,0.323-1.268,0.119-1.512c-0.237-0.283-0.811-0.183-0.816-0.182
	c-0.2,0.039-0.394-0.092-0.433-0.292c-0.039-0.2,0.09-0.393,0.29-0.433c0.025-0.005,0.406-0.078,0.816,0.017
	c-1.573-0.966-3.417-1.534-5.398-1.534c-5.715,0-10.347,4.634-10.347,10.346c0,4.449,2.815,8.231,6.758,9.691
	c-0.058-0.048-0.114-0.099-0.164-0.162c-0.362-0.463-0.545-0.981-0.114-1.937c0.599-1.333,3.132-2.143,5.813-2.846
	c2.662-0.699,5.679-1.49,6.833-3.079c0.12-0.165,0.352-0.202,0.517-0.082s0.202,0.351,0.082,0.517
	c-1.309,1.802-4.462,2.629-7.243,3.359c-2.289,0.601-4.736,1.342-5.239,2.33c-0.343,0.673-0.237,1.061-0.066,1.281
	c0.177,0.229,0.652,0.205,0.804,0.179c0.2-0.035,0.392,0.099,0.428,0.3c0.036,0.2-0.097,0.392-0.297,0.428
	c-0.035,0.006-0.167,0.025-0.34,0.027c0.825,0.211,1.685,0.336,2.576,0.336c5.712,0,10.343-4.63,10.343-10.343
	C258.852,99.563,257.218,96.566,254.705,94.678z"/>
<path fill-rule="evenodd" clip-rule="evenodd" d="M307.115,129.762c0,0,3.072-2.325,4.04-5.509c0,0,0.907-2.71,0.735-4.589
	c0,0-0.209-4.768-2.01-8.919c0,0-1.267-2.601-0.87-7.456c0,0,0.563-3.717,1.386-4.428c0,0,10.706-10.258,11.305-11.114
	c0,0,2.156-1.495,3.249-2.905c0,0,4.788-2.479,5.557-2.908c0,0,4.562-3.014,6.36-4.125c0,0,0.821,0.021,1.505-0.32
	c0,0,1.396-0.69,2.508-1.202c0,0,3.391-1.021,4.503-1.107c0,0,1.196-0.341,1.795-0.939c0,0,1.369-1.026,0.258-1.881
	c0,0-0.171-0.257-0.6,0.086c0,0-2.309,0.684-4.445,0.684c0,0-1.111-0.172-2.052-0.77c0,0-1.282-0.599-2.564-0.086
	c0,0-1.111,0.256-1.283,1.795l-0.085,0.684c0,0-4.36,1.111-6.668,1.88c0,0-3.388,0.623-5.9,2.908c0,0-1.537,1.709-2.649,2.393
	c0,0-6.924,3.078-8.977,4.275c0,0-8.122,4.787-9.831,6.583c-1.163,0.361-3.432-0.829-3.432-0.829
	c-1.731-1.059-3.993-2.376-5.803-3.189c0,0-3.762-1.027-5.214-1.881c0,0-1.882-1.111-2.65-2.309c0,0-2.053-2.992-5.044-5.13
	c0,0-7.097-4.702-9.148-6.326c0,0,0.854-0.257,0.768-1.197c0,0-0.596-1.026-1.794-1.454c0,0-1.966-1.025-3.677-2.479
	c0,0-1.709-1.452-2.223-1.538c0,0-0.598-0.086-0.94,0.684c0,0-0.09,0.214,0.852,2.437c0,0,1.542,2.949,3.681,4.916
	c0,0,1.538,1.539,3.419,3.164c0,0,6.147,8.006,8.368,9.545c0,0,2.186,2.789,3.125,3.644c0,0,4.637,4.956,11.477,9.744
	c0,0,0.661,3.502,5.583,6.152c0.848,0.456,1.516,1.703,1.711,3.031c0,0,0.176,3.862-0.933,6.215c0,0-1.972,3.333-2.525,4.855
	c0,0-1.537,4.729-0.431,6.252"/>
<path fill-rule="evenodd" clip-rule="evenodd" stroke="#FFFFFF" stroke-width="0.5" d="M302.186,158.127
	c0.878-11.126,0.535-10.681,0.535-10.681s-0.244-1.666-0.527-4.508c-0.6-1.997-1.26-4.383-1.567-6.146l-1.105-1.528
	c-0.195,0.312-0.344,0.51-0.344,0.51c-0.736,0.733-1.156,1.626-1.156,1.626c-0.017,0.05-0.044,0.096-0.065,0.143
	c-0.356,5.417,0.898,10.852,0.898,10.852c-1.248,0.577,0.655,10.526,0.655,10.526c-0.061,0.995,0.474,2.654,0.474,2.654
	c-0.318,0.267-2.202,0.198-2.202,0.198c-0.957,0-3.076,0.594-3.076,0.594c-1.264,0.402-0.879,0.979-0.879,0.979
	c0.24,0.534,3.513,0.356,3.99,0.356c0.034,0,0.083,0.005,0.126,0.009c0.147-0.254,0.539-0.587,1.563-0.783
	c0,0,1.646-0.604,2.684-0.604c0,0,0.008,0.001,0.021,0.002c0.074-0.385,0.15-0.839-0.003-1.293
	C301.968,160.32,302.186,158.127,302.186,158.127z"/>
<g>
	<path fill-rule="evenodd" clip-rule="evenodd" stroke="#FFFFFF" stroke-width="0.5" d="M299.177,135.774
		c0,0,0.148-0.198,0.344-0.51c0.342-0.544,0.834-1.439,0.966-2.274c0.144-0.894,0.476-0.04,0.476-0.877
		c0-0.838-1.229-6.694-2.567-7.029l-1.14,0.997c0,0-1.736,0.253-2.825,1.175c0,0-1.174,0.167-2.429,0.668
		c0,0-2.38,0.761-3.432,2.513c0,0-1.994,2.604-0.42,6.029c0,0,0.787,1.878,3.265,2.596c0,0,1.173,0.251,2.932,0.084
		c0,0,2.906-0.068,3.609-1.604c0.021-0.047,0.049-0.093,0.065-0.143C298.021,137.4,298.44,136.507,299.177,135.774z"/>
	<g>
		<g>
			<path fill="#FFFFFF" d="M299.394,135.649c0.419-0.586,1.149-2.963,1.328-3.062c0.06-0.033,0.394-0.172,0.402-0.234
				c0.262-1.76-0.769-6.586-2.513-7.394c-0.047-0.021-0.386,0.208-0.434,0.25c-1.122,0.981-1.51,0.705-3.009,1.55
				c-0.711,0.401-1.415,0.549-2.217,0.778c-2.084,0.597-4.069,1.86-5.058,3.828c-0.93,1.848-0.707,4.257,0.474,5.934
				c1.414,2.006,3.65,2.062,5.843,1.97C297.192,139.143,297.626,137.675,299.394,135.649c-0.104,0.118-0.329,0.13-0.434,0.25
				c-0.763,0.875-1.242,2.274-2.362,2.747c-1.066,0.449-2.449,0.427-3.577,0.428c-2.391,0.002-4.148-1.418-4.977-3.57
				c-1.168-3.034,0.803-6.343,3.657-7.426c0.956-0.362,2.043-0.404,2.916-0.929c0.943-0.566,1.906-0.632,2.792-1.155
				c0.075-0.044,0.102-0.072,0.181-0.142c0.207-0.181,0.413-0.361,0.62-0.542c0.304-0.338,0.363-0.339,0.179-0.003
				c0.861,0.399,1.245,2.188,1.498,2.975c0.209,0.65,1.188,4.052,0.887,4.223c-1.001,0.564-1.111,2.413-1.813,3.395
				C299.048,135.777,299.305,135.773,299.394,135.649z"/>
		</g>
	</g>
</g>
<g>
	<g>
		<path fill-rule="evenodd" clip-rule="evenodd" d="M298.553,124.056c-0.865,1.818,1.299,5.281,1.299,5.281
			c-1.472,1.818,0.605,5.627,0.605,5.627c-0.029,0.443,0.039,1.08,0.169,1.828c0.308,1.762,0.968,4.149,1.567,6.146
			c0.639,2.124,1.208,3.801,1.208,3.801c-0.782,0.402-0.519,4.157-0.519,4.157c0,3.548,1.026,8.311,1.026,8.311
			c0.064,1.936,0.322,3.031,0.322,3.031c-0.323,0.245-1.83,0.105-2.021,0.087c-0.014-0.001-0.021-0.002-0.021-0.002
			c-1.037,0-2.684,0.604-2.684,0.604c-1.024,0.196-1.416,0.529-1.563,0.783c-0.114,0.196-0.082,0.345-0.082,0.345
			c0.262,0.518,3.811,0.346,4.329,0.346c0.52,0,1.992-0.26,1.992-0.26c1.213,0.174,1.819-0.174,1.819-0.174s0.619-0.051,0.691-0.951
			c0.083-1.044,0.173-2.425,0.173-2.425c1.558-10.822,0.348-13.68,0.348-13.68c0.086-1.386,0.519-4.157,0.433-5.715
			c-0.087-1.557,0-4.328,0.26-8.397c0.259-4.068-0.779-7.272-0.779-7.272s-0.271,0.087,0.201-0.924"/>
		<g>
			<g>
				<path fill="#FFFFFF" d="M298.312,123.989c-0.529,1.594,0.157,3.203,0.86,4.639c0.565,1.153-0.197,2.735,0.189,4.271
					c0.172,0.682,0.467,1.342,0.77,1.975c0.308,0.645,0.247,1.95,0.385,2.673c0.592,3.106,1.612,6.165,2.611,9.16
					c-0.027-0.083-0.445,1.2-0.449,1.223c-0.126,0.777-0.095,1.59-0.074,2.374c0.062,2.378,0.311,4.721,0.703,7.066
					c0.155,0.926,0.351,1.795,0.398,2.733c0.023,0.456,0.077,0.958,0.148,1.411c0.121,0.779,0.303,0.56-0.418,0.615
					c-1.629,0.125-3.146,0.062-4.713,0.751c-0.188,0.083-1.633,0.853-1.04,1.352c0.993,0.836,3.106,0.452,4.294,0.423
					c1.387-0.034,2.852-0.168,4.188-0.469c1.338-0.301,0.948-3.575,1.075-4.49c0.546-3.915,1.102-8.169,0.403-12.109
					c-0.191-1.075-0.059-1.99,0.063-3.115c0.271-2.511,0.13-5.027,0.226-7.548c0.146-3.848,0.601-7.715-0.565-11.463
					c-0.035-0.112-0.126-0.176-0.241-0.184c0.316,0.007,0.464-0.196,0.442-0.608c0.12-0.299-0.363-0.428-0.482-0.133
					c-0.445,1.104-0.162,1.148,0.025,1.899c0.922,3.688,0.437,7.436,0.295,11.177c-0.104,2.757-0.047,5.446-0.344,8.199
					c-0.104,0.961,0.022,1.402,0.165,2.309c0.341,2.168,0.19,4.436,0.043,6.611c-0.133,1.961-0.526,3.905-0.655,5.86
					c-0.093,1.413,0.113,3.137-1.638,3.346c-2.094,0.25-4.519,0.464-6.62,0.097c-0.498-0.088,1.517-0.972,1.342-0.91
					c0.81-0.286,1.63-0.481,2.49-0.551c0.721-0.058,1.398,0.143,2.109-0.094c0.135-0.045,0.204-0.169,0.175-0.308
					c-0.427-1.983-0.57-4.168-0.887-6.188c-0.24-1.533-1.473-7.671-0.008-9.067c0.062-0.059,0.092-0.161,0.064-0.243
					c-1.024-3.04-1.965-6.122-2.645-9.259c-0.195-0.901-0.023-1.976-0.436-2.792c-0.771-1.524-1.479-3.595-0.495-5.159
					c0.047-0.074,0.045-0.178,0-0.252c-0.884-1.45-1.842-3.377-1.273-5.089C298.896,123.815,298.413,123.685,298.312,123.989
					L298.312,123.989z"/>
			</g>
		</g>
	</g>
</g>
</svg>
